<svg xmlns="http://www.w3.org/2000/svg" width="378" height="192"><style>.c0 { fill: rgb(255, 123, 5); stroke: rgb(255, 123, 5); }.c1 { fill: rgb(255, 254, 254); stroke: rgb(255, 254, 254); }</style><g transform="scale(0.01 0.01)" stroke-width="100"><path d="M90,40 c57,-27 10,-7 70,-30 c82,-9 13,-3 90,-10 l37500,0 c68,15 7,2 80,20 c52,32 12,5 60,40 c35,48 8,8 40,60 c18,73 5,12 20,80 l0,18700 c-7,77 -1,7 -10,90 c-23,60 -3,13 -30,70 c-40,43 -7,10 -50,50 c-57,27 -10,7 -70,30 c-82,9 -13,3 -90,10 l-37500,0 c-68,-15 -7,-2 -80,-20 c-52,-32 -12,-5 -60,-40 c-35,-48 -8,-8 -40,-60 c-18,-73 -5,-12 -20,-80 l0,-18700 c7,-77 1,-7 10,-90 c23,-60 3,-13 30,-70 z" class="c1"/><path d="M2150,4880 c138,-282 15,-34 160,-320 c90,-117 22,-38 110,-140 c102,-114 20,-23 130,-140 c166,-142 28,-26 210,-170 c278,-143 44,-28 320,-160 c116,-36 42,-17 180,-40 c533,-7 64,-4 590,-10 c77,-15 57,-2 90,-20 c60,-32 13,-5 70,-40 c43,-48 10,-8 50,-60 c27,-23 7,-12 30,-80 c6,-535 3,-57 10,-600 c24,-138 4,-65 40,-180 c124,-275 16,-42 150,-320 c130,-186 26,-45 160,-220 c171,-166 30,-34 200,-190 c118,-82 29,-24 150,-100 c198,-104 32,-18 240,-120 c238,-64 42,-16 260,-70 l8400,0 c221,32 22,4 270,50 c282,138 49,18 320,160 c117,90 38,22 140,110 c114,102 23,20 140,130 c142,166 26,28 170,210 c143,271 28,44 160,320 c46,247 18,49 50,270 l0,12300 c-14,68 -2,7 -20,90 c-36,136 -6,22 -50,170 c-102,207 -14,34 -120,240 c-76,121 -18,32 -100,150 c-156,170 -24,29 -190,200 c-182,137 -34,30 -220,160 c-198,104 -38,23 -240,120 c-238,64 -42,16 -260,70 l-8400,0 c-221,-32 -22,-4 -270,-50 c-282,-138 -49,-18 -320,-160 c-117,-90 -38,-22 -140,-110 c-114,-102 -23,-20 -140,-130 c-142,-166 -26,-28 -170,-210 c-142,-271 -28,-44 -160,-320 c-46,-247 -18,-49 -50,-270 l0,-5500 c-15,-77 -2,-7 -20,-90 c-32,-60 -5,-13 -40,-70 c-48,-43 -8,-10 -60,-50 c-23,-27 -12,-7 -80,-30 c-528,-3 -57,-3 -600,-10 c-218,-54 -72,-7 -260,-70 c-202,-97 -42,-16 -240,-120 c-186,-130 -38,-23 -220,-160 c-166,-171 -34,-30 -190,-200 c-82,-118 -24,-29 -100,-150 c-104,-198 -18,-32 -120,-240 c-64,-238 -16,-42 -70,-260 l0,-3300 c26,-158 2,-15 30,-180 z" class="c0"/><path d="M2950,5080 c72,-128 9,-20 90,-150 c97,-104 18,-22 120,-120 c132,-61 23,-16 160,-70 c165,-37 28,-9 180,-40 l8000,0 c235,38 22,4 270,50 c128,72 35,12 150,90 c104,97 22,18 120,120 c61,132 16,23 70,160 c37,165 9,28 40,180 l0,2900 c-26,158 -2,15 -30,180 c-15,76 -4,22 -20,90 c-22,58 -5,14 -40,80 c-142,168 -18,22 -170,190 c-132,61 -28,22 -160,70 c-165,37 -28,9 -180,40 l-8000,0 c-235,-38 -22,-4 -270,-50 c-128,-72 -35,-12 -150,-90 c-104,-97 -22,-18 -120,-120 c-61,-132 -16,-23 -70,-160 c-37,-165 -9,-28 -40,-180 l0,-2900 c26,-158 2,-15 30,-180 z" class="c1"/><path d="M4390,5660 c57,-35 10,-8 70,-40 c16,-18 13,-5 90,-20 c718,-3 74,-2 800,0 c152,31 82,3 180,40 c135,55 28,9 160,70 c119,89 25,15 140,110 c95,115 21,21 110,140 c63,133 15,25 70,160 c12,132 7,27 10,160 c-27,145 -2,28 -40,180 c-105,215 -13,35 -120,240 c-36,43 -15,25 -60,60 c-188,124 -24,17 -230,140 c-214,46 -42,16 -270,50 c-359,-2 -56,4 -400,0 c-77,15 -41,2 -90,20 c-60,32 -13,5 -70,40 c-43,48 -10,8 -50,60 c-27,32 -7,12 -30,80 c-8,452 -3,48 -10,500 c-15,68 -2,48 -20,80 c-32,52 -5,12 -40,60 c-49,36 -8,8 -60,40 c-58,12 -11,4 -70,10 c-60,-23 -12,-2 -70,-30 c-43,-40 -10,-7 -50,-50 c-27,-57 -7,-10 -30,-70 c-9,-82 -3,-13 -10,-90 l0,-1700 c7,-85 1,-8 10,-100 c23,-68 3,-15 30,-80 z" class="c0"/><path d="M4790,6040 c57,-27 10,-7 70,-30 c58,-9 13,-3 90,-10 c261,-4 32,-1 300,0 c151,42 39,4 170,50 c52,40 19,8 60,50 c35,57 8,10 40,70 c22,69 5,13 20,90 c-32,142 -2,21 -40,160 c-40,52 -8,18 -50,60 c-49,34 -10,8 -70,40 c-140,28 -21,6 -180,30 c-268,2 -40,2 -300,0 c-68,-15 -32,-2 -80,-20 c-52,-32 -12,-5 -60,-40 c-35,-48 -8,-8 -40,-60 c-19,-58 -5,-12 -20,-80 c7,-168 -1,-22 10,-190 c23,-60 3,-22 30,-70 z" class="c1"/><path d="M4950,3080 c72,-128 9,-20 90,-150 c97,-104 18,-22 120,-120 c132,-61 23,-16 160,-70 c165,-37 28,-9 180,-40 l8000,0 c235,38 22,4 270,50 c128,72 35,12 150,90 c104,97 22,18 120,120 c61,132 16,23 70,160 c37,165 9,28 40,180 l0,9900 c-17,127 -2,12 -20,140 c-16,11 -3,12 -20,10 c-14,-2 -4,-1 -30,-20 c-136,-172 -16,-18 -160,-200 c-102,-94 -24,-28 -130,-130 c-177,-258 -28,-36 -210,-300 c-152,-152 -33,-42 -190,-200 c-231,-322 -38,-48 -270,-370 c-166,-159 -39,-48 -200,-200 c-177,-248 -34,-41 -210,-290 c-157,-168 -33,-42 -190,-210 c-177,-248 -33,-42 -210,-290 c-161,-174 -33,-42 -190,-210 c-142,-197 -29,-36 -160,-220 c-49,-52 -18,-23 -60,-60 c-58,-37 -11,-8 -70,-40 c-59,-2 -12,-3 -70,0 c-36,-4 -11,2 -60,20 c-194,231 -24,24 -230,270 c-166,158 -36,39 -200,200 c-166,247 -34,42 -210,300 c-276,288 -44,53 -320,340 c-171,243 -44,52 -210,290 c-221,222 -39,47 -260,270 c-166,247 -39,48 -210,300 c-285,299 -44,53 -320,340 c-82,128 -35,41 -100,150 c-86,92 -18,22 -120,120 c-243,171 -34,28 -290,220 c-242,333 -47,49 -270,370 c-43,55 -28,37 -60,70 c-122,99 -17,15 -140,110 c-58,19 -18,11 -70,20 c-58,-7 -12,1 -70,-10 c-58,-22 -12,-3 -70,-30 c-31,-22 -12,-8 -70,-60 c-352,-349 -39,-38 -400,-400 c-148,-180 -48,-51 -170,-210 c-76,-120 -22,-30 -100,-150 c-129,-148 -24,-30 -190,-210 c-477,-462 -61,-62 -540,-530 c-197,-261 -63,-68 -220,-290 c-49,-52 -23,-29 -60,-60 c-58,-37 -11,-8 -70,-40 c-59,-2 -12,-3 -70,0 c-50,13 -11,2 -60,20 c-30,26 -10,7 -60,60 c-217,242 -30,34 -300,350 c-617,842 -83,108 -700,950 c-258,297 -83,108 -300,350 c-188,263 -42,53 -210,290 c-42,28 -22,27 -50,30 c-34,3 -8,2 -40,0 c-27,-23 -6,-3 -30,-40 c-9,-156 -3,-18 -10,-170 l0,-3900 c7,-77 1,-7 10,-90 c23,-60 3,-13 30,-70 c40,-43 7,-10 50,-50 c57,-27 10,-7 70,-30 c82,-9 13,-3 90,-10 l6600,0 c228,-54 22,-6 270,-70 c208,-102 42,-16 240,-120 c120,-76 32,-18 150,-100 c178,-156 30,-24 210,-190 c142,-175 32,-34 170,-220 c143,-278 28,-45 160,-320 c37,-165 17,-42 40,-180 l10,-3400 c-54,-228 -6,-22 -70,-270 c-102,-208 -16,-42 -120,-240 c-70,-115 -18,-32 -100,-150 c-226,-238 -30,-35 -260,-270 c-111,-88 -34,-32 -150,-110 c-270,-142 -39,-22 -320,-160 c-257,-46 -50,-18 -280,-50 l-6600,0 c-68,-15 -7,-2 -80,-20 c-52,-32 -12,-5 -60,-40 c-35,-48 -8,-8 -40,-60 c-18,-48 -5,-12 -20,-80 c-2,-260 -2,-32 0,-300 c26,-158 2,-40 30,-180 z" class="c1"/><path d="M4970,14890 c633,-837 62,-85 710,-940 c177,-258 77,-103 210,-300 c138,-134 33,-42 190,-200 c385,-532 52,-66 430,-590 c95,-91 45,-58 110,-100 c58,-11 15,-9 70,-10 c52,9 12,1 70,20 c89,62 18,11 140,110 c403,395 51,48 470,470 c247,338 67,75 330,430 c595,592 83,92 670,670 c206,246 75,78 230,270 c51,19 24,24 60,20 c40,-6 9,1 50,-10 c59,-32 10,-4 70,-40 c51,-48 11,-8 60,-60 c24,-51 9,-12 50,-80 c225,-229 26,-29 260,-270 c137,-192 35,-41 160,-220 c86,-92 23,-28 120,-120 c243,-171 34,-28 290,-220 c221,-311 47,-49 270,-370 c285,-299 49,-59 320,-340 c78,-120 35,-41 100,-150 c139,-176 22,-30 170,-210 c166,-158 31,-34 200,-200 c166,-247 34,-42 210,-300 c271,-282 44,-53 320,-340 c242,-325 49,-58 270,-360 c52,-52 28,-35 70,-60 c122,-38 18,-8 140,-40 c58,14 18,-2 70,20 c47,22 12,6 70,50 c166,238 23,28 210,290 c276,287 44,52 320,340 c177,258 44,53 210,300 c157,158 33,42 190,200 c177,258 33,42 210,300 c157,158 33,42 190,200 c171,252 33,42 210,300 c211,212 39,48 260,270 c297,381 49,58 330,430 c62,139 33,49 70,160 c18,49 8,21 20,90 c0,325 2,41 0,400 c4,436 0,75 0,500 c-42,241 -4,64 -50,270 c-22,58 -8,29 -40,80 c-143,168 -18,22 -170,190 c-132,61 -28,22 -160,70 c-165,37 -28,9 -180,40 l-8000,0 c-235,-38 -22,-4 -270,-50 c-128,-72 -35,-12 -150,-90 c-104,-97 -22,-18 -120,-120 c-61,-132 -16,-23 -70,-160 c-37,-157 -9,-28 -40,-180 c-2,-77 -3,-23 0,-100 c24,-158 2,-23 30,-180 z" class="c1"/><path d="M6590,5640 c58,-28 10,-7 70,-30 c67,7 12,-2 80,10 c63,18 13,3 80,30 c98,82 17,12 120,110 c123,205 22,28 140,230 c45,44 17,25 60,70 c105,214 15,26 120,240 c32,25 15,26 60,70 c238,425 28,45 270,470 c97,66 32,45 110,70 c43,-14 13,4 50,-20 c26,-38 7,-6 30,-50 c17,0 4,-12 20,-90 c7,-902 2,-90 10,-990 c23,-60 3,-88 30,-70 c40,-43 7,-10 50,-50 c58,-28 10,-7 70,-30 c59,6 12,-2 70,10 c52,32 11,4 60,40 c35,48 8,8 40,60 c18,73 5,12 20,80 l0,1800 c-7,77 -1,7 -10,90 c-23,60 -3,13 -30,70 c-40,43 -7,10 -50,50 c-58,28 -10,7 -70,30 c-60,-3 -12,2 -80,-10 c-142,-59 -20,-7 -160,-70 c-28,-10 -18,-11 -60,-60 c-288,-489 -32,-50 -320,-540 c-45,-44 -32,-51 -60,-70 c-105,-214 -15,-26 -120,-240 c-47,-51 -15,-26 -60,-70 c-73,-141 -12,-19 -90,-160 c-98,-65 -17,-19 -110,-70 c-25,5 -12,-5 -30,10 c-26,38 -5,5 -30,50 c-17,0 -4,12 -20,90 c-7,902 -2,90 -10,990 c-23,60 -3,88 -30,70 c-40,43 -7,10 -50,50 c-58,28 -10,7 -70,30 c-59,-6 -12,2 -70,-10 c-52,-32 -11,-4 -60,-40 c-35,-48 -8,-8 -40,-60 c-18,-73 -5,-12 -20,-80 l0,-1800 c7,-77 1,-7 10,-90 c23,-60 3,-13 30,-70 z" class="c0"/><path d="M8350,10980 c131,-279 15,-34 160,-320 c148,-143 29,-41 190,-170 c278,-134 42,-27 320,-150 c141,-38 42,-16 180,-40 c251,6 39,-2 290,10 c138,23 39,4 180,40 c283,137 42,17 320,160 c106,104 37,23 120,120 c33,38 14,16 50,70 c134,278 17,32 150,320 c38,149 16,42 40,180 c-6,159 2,31 -10,190 c-23,138 -4,31 -40,180 c-137,283 -17,42 -160,320 c-104,106 -23,37 -120,120 c-38,33 -16,14 -70,50 c-278,134 -32,17 -320,150 c-141,38 -42,16 -180,40 c-251,-6 -39,2 -290,-10 c-138,-23 -39,-4 -180,-40 c-279,-131 -42,-17 -320,-160 c-146,-154 -41,-29 -170,-190 c-104,-198 -24,-36 -120,-240 c-64,-230 -16,-42 -70,-260 c-2,-77 -6,-30 0,-100 c26,-158 2,-23 30,-180 z" class="c0"/><path d="M8750,6300 c23,-63 5,-16 40,-90 c130,-195 17,-27 160,-230 c164,-162 30,-35 200,-190 c188,-124 36,-28 230,-140 c214,-46 42,-16 270,-50 c352,-3 56,-4 400,0 c152,31 48,3 180,40 c129,50 28,9 160,70 c179,138 31,20 210,170 c145,197 31,32 160,220 c20,51 15,23 20,60 c-15,42 0,9 -20,50 c-24,32 -5,8 -40,40 c-132,46 -16,8 -150,50 c-59,2 -18,4 -70,0 c-46,-10 -11,-2 -60,-20 c-97,-85 -14,-10 -110,-100 c-40,-68 -13,-15 -50,-80 c-58,-52 -10,-12 -70,-60 c-58,-32 -12,-8 -80,-40 c-148,-47 -22,-8 -180,-50 c-161,4 -32,-3 -200,10 c-241,52 -39,6 -270,60 c-62,28 -29,8 -80,40 c-115,86 -18,12 -130,100 c-36,44 -15,14 -50,70 c-106,197 -14,26 -120,240 c-49,242 -14,43 -50,280 c31,151 -1,38 40,180 c55,143 9,29 70,170 c89,128 15,27 110,150 c115,93 21,22 140,110 c132,79 25,17 160,90 c148,36 28,11 180,40 c168,12 32,4 200,10 c151,-31 32,-2 180,-40 c145,-54 29,-9 170,-70 c118,-104 25,-16 130,-120 c20,-59 12,-16 20,-70 c-14,-51 0,-11 -20,-60 c-39,-43 -6,-9 -50,-50 c-57,-27 -11,-7 -80,-30 c-177,-8 -23,-3 -200,-10 c-68,-15 -23,-2 -80,-20 c-52,-32 -12,-5 -60,-40 c-36,-49 -8,-8 -40,-60 c-12,-58 -4,-11 -10,-70 c23,-60 2,-12 30,-70 c40,-43 7,-10 50,-50 c57,-27 10,-7 70,-30 c41,-9 13,-3 90,-10 c452,-2 49,-1 500,0 c68,15 48,2 80,20 c52,32 12,5 60,40 c35,48 8,8 40,60 c19,33 5,12 20,80 c-8,442 1,48 -10,490 c-15,77 -2,48 -20,90 c-26,55 -5,13 -40,70 c-92,90 -14,15 -130,110 c-280,114 -38,20 -330,130 c-223,56 -50,16 -270,60 c-236,-2 -47,4 -290,-10 c-316,-68 -54,-8 -360,-80 c-149,-52 -44,-12 -170,-60 c-57,-21 -21,-8 -80,-40 c-178,-168 -23,-19 -200,-190 c-43,-45 -22,-22 -60,-70 c-124,-188 -17,-25 -140,-230 c-46,-222 -16,-42 -50,-270 c-2,-258 -4,-48 0,-300 c26,-175 2,-42 30,-200 z" class="c0"/><path d="M8750,11080 c72,-128 9,-20 90,-150 c97,-104 18,-22 120,-120 c132,-61 23,-16 160,-70 c158,-38 28,-9 180,-40 c68,6 22,-2 90,10 c158,33 22,4 180,40 c58,22 22,7 80,40 c168,142 22,18 190,170 c62,132 22,28 70,160 c31,141 8,28 30,170 c-33,158 -1,29 -40,180 c-22,58 -7,22 -40,80 c-142,168 -18,22 -170,190 c-132,61 -28,22 -160,70 c-142,41 -28,9 -180,40 c-235,-38 -38,-1 -270,-50 c-128,-72 -35,-12 -150,-90 c-104,-97 -22,-18 -120,-120 c-62,-139 -16,-23 -70,-160 c-18,-76 -8,-21 -20,-90 c-11,-66 -2,-14 -10,-80 c17,-75 1,-14 20,-90 z" class="c1"/><path d="M15890,11040 c57,-27 8,-5 70,-30 c82,-9 13,-3 90,-10 l3300,0 c77,-15 7,-2 90,-20 c62,-32 13,-5 70,-40 c28,-40 8,-8 30,-50 c6,-51 2,-10 0,-70 c-59,-141 -6,-19 -70,-160 c-45,-44 -11,-19 -60,-70 c-108,-215 -15,-26 -120,-240 c-19,-52 -12,-25 -20,-60 c7,-36 -1,-8 10,-40 c12,-21 3,-4 30,-10 c158,112 18,11 190,140 c158,166 32,28 200,200 c258,178 42,34 300,210 c188,151 42,32 210,170 c53,51 22,19 60,60 c19,42 7,9 20,50 c-6,32 1,8 -10,40 c-32,41 -4,8 -40,50 c-42,48 -8,9 -60,60 c-128,69 -18,12 -160,90 c-168,114 -32,21 -220,160 c-358,354 -52,46 -400,390 c-90,38 -42,36 -100,40 c-18,-14 -10,2 -20,-20 c-9,-27 -2,-6 0,-50 c92,-198 9,-23 110,-230 c87,-125 18,-32 100,-150 c57,-132 13,-25 60,-150 c-14,-51 3,-18 -20,-60 c-39,-43 -6,-9 -50,-50 c-73,-28 -11,-7 -80,-30 l-3400,-10 c-69,-16 -7,-2 -80,-20 c-45,-25 -11,-4 -50,-30 c-12,-25 -5,-5 -10,-30 z" class="c0"/><path d="M19250,4880 c138,-282 15,-34 160,-320 c90,-117 22,-38 110,-140 c102,-114 20,-23 130,-140 c166,-142 28,-26 210,-170 c271,-142 44,-28 320,-160 c206,-46 49,-18 270,-50 c451,2 64,-4 500,0 c77,-15 49,-2 90,-20 c60,-32 13,-5 70,-40 c43,-48 10,-8 50,-60 c27,-65 7,-12 30,-80 c9,33 3,-15 10,-100 c-3,-1360 1,-133 0,-1500 c24,-138 3,-140 40,-180 c129,-281 16,-42 150,-320 c76,-121 21,-39 100,-150 c156,-170 24,-29 190,-200 c175,-134 34,-30 220,-160 c278,-134 45,-26 320,-150 c165,-37 42,-16 180,-40 l10400,0 c221,32 22,4 270,50 c276,132 49,18 320,160 c172,132 44,28 210,170 c207,230 38,38 240,280 c142,271 33,50 160,320 c46,247 18,49 50,270 l0,14300 c-54,218 -6,22 -70,260 c-97,202 -16,42 -120,240 c-130,186 -23,38 -160,220 c-171,166 -30,34 -200,190 c-118,82 -29,24 -150,100 c-198,104 -32,18 -240,120 c-238,64 -42,16 -260,70 l-10400,0 c-221,-32 -22,-4 -270,-50 c-270,-127 -49,-18 -320,-160 c-242,-202 -50,-33 -280,-240 c-142,-166 -38,-38 -170,-210 c-142,-271 -28,-44 -160,-320 c-46,-247 -18,-49 -50,-270 l0,-6500 c-15,-77 -2,-7 -20,-90 c-32,-60 -5,-13 -40,-70 c-48,-43 -8,-10 -60,-50 c-23,-27 -12,-7 -80,-30 c-528,-3 -57,-3 -600,-10 c-218,-54 -72,-7 -260,-70 c-202,-97 -42,-16 -240,-120 c-186,-130 -38,-23 -220,-160 c-166,-171 -34,-30 -190,-200 c-82,-118 -24,-29 -100,-150 c-104,-198 -18,-32 -120,-240 c-64,-238 -16,-42 -70,-260 l0,-3300 c26,-158 2,-15 30,-180 z" class="c0"/><path d="M20050,5080 c72,-128 9,-20 90,-150 c97,-104 18,-22 120,-120 c132,-61 23,-16 160,-70 c165,-37 28,-9 180,-40 l8400,0 c235,38 22,4 270,50 c128,72 35,12 150,90 c104,97 22,18 120,120 c61,132 16,23 70,160 c37,165 9,28 40,180 l-10,2990 c-33,158 -3,15 -40,180 c-22,58 -7,22 -40,80 c-142,168 -18,22 -170,190 c-132,61 -28,22 -160,70 c-165,37 -28,9 -180,40 l-8400,0 c-235,-38 -22,-4 -270,-50 c-128,-72 -35,-12 -150,-90 c-104,-97 -22,-18 -120,-120 c-61,-132 -16,-23 -70,-160 c-37,-165 -9,-28 -40,-180 l0,-2900 c26,-158 2,-15 30,-180 z" class="c1"/><path d="M20810,7430 c105,-43 13,-8 130,-50 c146,-30 25,-7 170,-30 c98,10 24,0 120,30 c118,182 22,20 140,210 c103,107 22,28 120,120 c58,33 17,13 80,40 c140,36 22,7 180,40 c268,11 40,4 300,10 c68,-12 32,-1 90,-20 c150,-59 22,-8 170,-70 c57,-42 20,-11 70,-60 c82,-140 13,-18 90,-160 c2,-66 8,-20 0,-80 c-9,-72 -2,-14 -20,-90 c-88,-112 -11,-18 -110,-130 c-109,-73 -22,-18 -160,-90 c-399,-95 -51,-17 -450,-110 c-132,-61 -51,-15 -160,-70 c-145,-27 -28,-9 -180,-40 c-214,-105 -35,-13 -240,-120 c-55,-43 -26,-15 -70,-60 c-92,-108 -15,-17 -110,-140 c-100,-213 -18,-32 -110,-240 c-9,-60 -10,-27 -10,-80 c-2,-139 -1,-20 0,-160 c8,-62 2,-21 20,-90 c105,-214 12,-28 120,-240 c43,-55 15,-26 60,-70 c108,-92 17,-15 140,-110 c198,-96 32,-18 240,-110 c223,-56 42,-14 270,-60 c243,4 47,-4 290,10 c220,43 47,6 270,60 c292,118 50,17 330,140 c102,98 38,22 120,120 c79,122 18,22 90,150 c38,159 11,28 40,180 c-6,59 2,21 -10,70 c-32,52 -4,11 -40,60 c-48,35 -8,8 -60,40 c-66,19 -12,5 -80,20 c-71,-3 -14,1 -90,-10 c-114,-48 -19,-7 -140,-70 c-149,-179 -26,-22 -170,-200 c-67,-42 -21,-21 -80,-50 c-58,-34 -13,-8 -80,-40 c-166,-28 -22,-6 -190,-30 c-69,-6 -24,-2 -100,0 c-242,60 -31,6 -270,70 c-60,40 -28,10 -70,50 c-43,58 -10,10 -50,70 c-28,58 -7,12 -30,70 c-3,67 -2,12 0,80 c26,63 3,13 40,80 c92,98 14,17 130,120 c280,123 38,22 330,140 c226,48 50,17 270,60 c218,63 44,12 260,80 c204,96 42,17 240,120 c168,142 36,24 190,170 c61,132 22,28 70,160 c37,148 9,28 40,180 c2,168 3,32 0,200 c-17,146 -2,32 -30,180 c-104,197 -13,34 -130,230 c-144,148 -26,33 -180,170 c-199,86 -36,22 -250,100 c-305,64 -51,14 -360,70 c-246,8 -55,6 -300,0 c-302,-72 -54,-8 -350,-90 c-199,-108 -48,-18 -230,-130 c-119,-108 -31,-22 -140,-130 c-94,-115 -21,-22 -110,-140 c-72,-141 -16,-25 -80,-160 c-19,-59 -8,-19 -20,-70 c7,-52 -1,-11 10,-60 z" class="c0"/><path d="M22050,2080 c72,-128 9,-20 90,-150 c97,-104 18,-22 120,-120 c132,-61 23,-16 160,-70 c165,-37 28,-9 180,-40 l10000,0 c235,38 22,4 270,50 c128,72 35,12 150,90 c104,97 22,18 120,120 c61,132 16,23 70,160 c37,165 9,28 40,180 l0,13900 c-26,158 -2,15 -30,180 c-15,76 -4,22 -20,90 c-22,58 -5,14 -40,80 c-142,168 -18,22 -170,190 c-132,61 -28,22 -160,70 c-165,37 -28,9 -180,40 l-10000,0 c-235,-38 -22,-4 -270,-50 c-128,-72 -35,-12 -150,-90 c-104,-97 -22,-18 -120,-120 c-61,-132 -16,-23 -70,-160 c-37,-165 -9,-28 -40,-180 l0,-6300 c7,-77 1,-7 10,-90 c23,-60 3,-13 30,-70 c40,-43 7,-10 50,-50 c57,-27 10,-7 70,-30 c82,-9 13,-3 90,-10 l7000,0 c228,-54 22,-6 270,-70 c207,-102 42,-16 240,-120 c120,-76 32,-18 150,-100 c178,-156 30,-24 210,-190 c142,-175 32,-34 170,-220 c143,-278 28,-45 160,-320 c37,-165 17,-42 40,-180 l10,-3400 c-54,-228 -6,-22 -70,-270 c-102,-208 -16,-42 -120,-240 c-76,-120 -18,-32 -100,-150 c-156,-178 -24,-30 -190,-210 c-175,-143 -34,-32 -220,-170 c-278,-143 -45,-28 -320,-160 c-165,-37 -42,-17 -180,-40 l-7100,-10 c-68,-15 -7,-2 -80,-20 c-52,-32 -12,-5 -60,-40 c-35,-48 -8,-8 -40,-60 c-18,35 -5,-12 -20,-80 c-2,-1177 -2,-115 0,-1300 c26,-158 2,-123 30,-180 z" class="c1"/><path d="M23390,5440 c48,-27 8,-6 70,-30 c168,-11 22,-3 190,-10 c62,11 22,1 80,20 c116,77 18,9 130,90 c28,28 14,13 40,70 c95,389 12,42 110,440 c61,141 15,51 70,170 c23,130 9,29 40,180 c143,370 17,50 160,420 c31,152 17,50 40,180 c60,132 9,28 70,160 c38,157 10,28 50,180 c78,92 12,23 90,100 c42,3 12,8 50,0 c39,-23 8,-3 50,-40 c69,-132 11,-17 80,-160 c40,-152 11,-28 50,-180 c61,-132 10,-28 70,-160 c23,-130 9,-28 40,-180 c143,-370 17,-50 160,-420 c33,-158 17,-50 40,-180 c25,-38 7,-22 40,-80 c125,-388 15,-42 140,-430 c26,-57 15,-42 40,-70 c112,-81 14,-13 130,-90 c58,-19 18,-9 80,-20 c168,7 22,-1 190,10 c62,24 22,3 70,30 c27,32 8,6 30,40 c11,49 3,8 10,60 c-12,51 -1,11 -20,70 c-64,118 -8,19 -80,160 c-95,308 -16,42 -110,350 c-61,132 -15,42 -70,160 c-23,130 -9,28 -40,180 c-143,370 -17,50 -160,420 c-33,158 -17,50 -40,180 c-32,58 -7,22 -40,80 c-40,152 -8,22 -50,180 c-62,139 -10,28 -70,160 c-3,48 -8,21 -20,90 c-163,368 -17,42 -180,410 c-15,77 -17,42 -20,90 c-26,57 -5,13 -40,70 c-112,81 -14,13 -130,90 c-57,18 -18,9 -80,20 c-176,1 -23,2 -200,0 c-77,-7 -24,-1 -90,-10 c-56,-18 -13,-3 -70,-30 c-85,-79 -14,-12 -100,-110 c-70,-232 -15,-31 -80,-260 c-33,-58 -10,-28 -40,-80 c-23,-130 -7,-22 -40,-180 c-143,-370 -17,-50 -160,-420 c-23,-130 -17,-50 -40,-180 c-143,-370 -17,-50 -160,-420 c-23,-130 -17,-50 -40,-180 c-143,-370 -17,-50 -160,-420 c-31,-152 -17,-50 -40,-180 c-64,-135 -9,-28 -70,-160 c-2,-125 -6,-25 0,-140 z" class="c0"/><path d="M23670,13190 c202,-232 22,-29 240,-280 c177,-248 38,-48 210,-290 c157,-168 33,-42 190,-210 c177,-248 33,-42 210,-290 c166,-180 33,-42 190,-210 c67,-108 24,-30 100,-150 c262,-304 33,-42 300,-350 c133,-181 38,-46 150,-200 c35,-30 17,-19 50,-30 c107,19 15,0 130,30 c129,82 23,11 150,100 c91,95 21,18 100,110 c14,52 9,15 10,70 c-38,113 -4,18 -60,150 c-177,248 -22,37 -210,290 c-166,180 -33,42 -190,210 c-67,108 -24,30 -100,150 c-258,297 -33,42 -300,350 c-177,248 -42,53 -210,290 c-172,186 -33,42 -190,210 c-27,67 -18,24 -30,80 c-11,68 -3,13 -10,80 c14,58 1,12 20,70 c30,57 6,12 50,80 c157,158 20,23 190,200 c177,258 33,42 210,300 c157,158 33,42 190,200 c177,258 33,42 210,300 c161,165 33,42 190,200 c141,189 29,35 160,220 c63,132 19,31 70,150 c11,59 7,18 10,70 c-13,50 -1,11 -20,60 c-42,48 -7,10 -60,60 c-124,81 -18,12 -150,90 c-137,25 -26,9 -160,20 c-96,-56 -23,-5 -120,-80 c-145,-182 -24,-24 -170,-210 c-102,-94 -25,-28 -130,-130 c-177,-258 -28,-36 -210,-300 c-157,-158 -33,-42 -190,-200 c-177,-258 -33,-42 -210,-300 c-157,-158 -33,-42 -190,-200 c-177,-258 -33,-42 -210,-300 c-171,-172 -33,-42 -190,-200 c-38,-122 -19,-28 -40,-140 z" class="c0"/><path d="M26150,6400 c5,-64 3,-17 20,-100 c137,-291 15,-36 160,-330 c91,-118 22,-39 110,-140 c98,-102 19,-22 120,-120 c111,-79 22,-18 150,-100 c271,-132 39,-21 320,-150 c223,-55 49,-18 270,-60 c245,-6 48,-5 300,0 c310,54 55,6 360,70 c208,100 50,16 240,120 c116,102 32,20 140,120 c128,82 24,18 150,100 c102,98 22,18 120,120 c82,132 18,22 90,150 c2,60 8,18 0,70 c-8,41 -2,10 -20,50 c-104,52 -12,9 -130,60 c-152,38 -26,8 -180,40 c-128,-1 -28,2 -150,-10 c-97,-85 -22,-9 -110,-100 c-36,-63 -13,-15 -50,-80 c-97,-102 -14,-17 -120,-120 c-132,-79 -23,-18 -160,-90 c-148,-36 -28,-11 -180,-40 c-168,-12 -32,-4 -200,-10 c-151,31 -32,2 -180,40 c-143,55 -29,9 -170,70 c-132,95 -27,15 -150,110 c-43,45 -18,15 -60,70 c-124,188 -17,25 -140,230 c-46,223 -16,42 -50,280 c-6,344 -4,57 0,400 c61,241 6,56 70,270 c27,61 9,29 40,80 c89,128 12,19 110,150 c115,93 21,22 140,110 c132,79 25,17 160,90 c148,36 28,11 180,40 c153,17 32,4 200,10 c317,-76 47,-7 360,-90 c142,-68 43,-14 160,-80 c52,-48 18,-12 60,-60 c35,-66 8,-12 40,-80 c19,-75 5,-14 20,-90 c-6,-77 1,-15 -10,-90 c-32,-60 -4,-13 -40,-70 c-48,-43 -8,-10 -60,-50 c-48,-27 -12,-7 -80,-30 c-268,-8 -32,-3 -300,-10 c-68,-15 -32,-2 -80,-20 c-52,-32 -12,-5 -60,-40 c-35,-48 -8,-8 -40,-60 c-19,-66 -5,-12 -20,-80 c7,-77 -1,-14 10,-90 c23,-60 3,-13 30,-70 c40,-43 7,-10 50,-50 c57,-27 10,-7 70,-30 c16,-9 13,-3 90,-10 c727,-2 74,-1 800,0 c68,15 73,2 80,20 c52,32 12,5 60,40 c35,48 8,8 40,60 c19,8 5,12 20,80 c-8,717 1,72 -10,790 c-11,70 -2,73 -20,90 c-77,133 -9,20 -90,150 c-44,37 -13,17 -70,50 c-160,87 -26,13 -240,110 c-635,147 -80,22 -720,160 c-246,8 -85,13 -300,0 c-301,-72 -54,-8 -350,-90 c-208,-102 -49,-18 -240,-120 c-128,-82 -32,-18 -150,-100 c-101,-98 -22,-18 -120,-120 c-88,-102 -19,-22 -110,-140 c-141,-263 -22,-38 -160,-320 c-64,-305 -19,-57 -70,-360 c-2,-258 -6,-55 0,-300 c26,-175 2,-42 30,-200 z" class="c0"/><path d="M27050,14780 l800,-3200 c26,-57 3,-6 40,-70 c113,-81 14,-13 130,-90 c66,-19 18,-9 80,-20 c77,7 14,-1 90,10 c60,23 13,3 70,30 c43,40 10,7 50,50 c28,58 7,10 30,70 c-9,73 2,12 -10,80 l-770,3110 c-51,151 -5,14 -60,170 c-40,52 -9,19 -50,60 c-49,34 -10,8 -70,40 c-158,29 -21,6 -180,30 c-68,-15 -22,1 -80,-20 c-53,-33 -12,-5 -60,-40 c-28,-40 -8,-8 -30,-50 c-2,-57 -2,-10 0,-70 z" class="c0"/><path d="M29570,11400 c178,-153 18,-19 200,-170 c58,-26 22,-17 70,-30 c60,-19 12,-4 70,-20 c42,6 10,-1 50,10 c32,18 8,4 50,40 c131,185 18,22 160,220 c157,158 29,35 190,200 c177,258 33,42 210,300 c157,158 33,42 190,200 c177,258 33,42 210,300 c157,158 33,42 190,200 c177,258 33,42 210,300 c171,172 33,42 190,200 c38,122 19,28 40,140 c2,41 2,18 -20,70 c-202,232 -22,29 -240,280 c-177,248 -38,48 -210,290 c-157,168 -33,42 -190,210 c-177,248 -33,42 -210,290 c-157,168 -33,42 -190,210 c-177,248 -33,42 -210,290 c-162,176 -33,42 -190,210 c-133,181 -28,34 -150,200 c-40,27 -17,19 -50,30 c-58,11 -10,3 -70,10 c-52,-10 -12,-1 -70,-20 c-132,-87 -18,-10 -150,-100 c-52,-43 -18,-13 -60,-60 c-42,-116 -8,-17 -40,-140 c38,-113 2,-24 60,-150 c177,-248 22,-37 210,-290 c166,-180 33,-42 190,-210 c67,-108 24,-30 100,-150 c258,-297 33,-42 300,-350 c177,-248 42,-53 210,-290 c171,-179 33,-42 190,-210 c38,-141 19,-31 40,-160 c-14,-58 2,-19 -20,-70 c-30,-57 -6,-12 -50,-80 c-157,-158 -20,-23 -190,-200 c-177,-258 -33,-42 -210,-300 c-157,-158 -33,-42 -190,-200 c-177,-258 -33,-42 -210,-300 c-161,-165 -33,-42 -190,-200 c-141,-189 -29,-35 -160,-220 c-63,-132 -19,-31 -70,-150 c-11,-59 -7,-18 -10,-70 z" class="c0"/></g></svg>