<svg width="300" height="300" xmlns="http://www.w3.org/2000/svg">
    <g stroke-width="20" fill="none">
        <polyline points="40 60 80 20 120 60 160 20 200 60 240 20" stroke="grey" stroke-linecap="butt"  stroke-linejoin="miter" />
        <polyline points="40 140 80 100 120 140 160 100 200 140 240 100" stroke="#CD5C5C" stroke-linecap="round" stroke-linejoin="round" />
        <polyline points="40 220 80 180 120 220 160 180 200 220 240 180" stroke="black"  stroke-linecap="square" stroke-linejoin="bevel" />
    </g>
    <g fill="none" stroke="orange" stroke-width="2">
        <polyline points="40 60 80 20 120 60 160 20 200 60 240 20" />
        <polyline points="40 140 80 100 120 140 160 100 200 140 240 100" />
        <polyline points="40 220 80 180 120 220 160 180 200 220 240 180" />
   </g>
</svg>